<?xml version="1.0" standalone="no"?>
<!DOCTYPE svg PUBLIC "-//W3C//DTD SVG 1.1//EN" "http://www.w3.org/Graphics/SVG/1.1/DTD/svg11.dtd">

<svg width="400" height="400" version="1.1" xmlns="http://www.w3.org/2000/svg">

<path d="M 392 285 L 212 218 L 146 118 T 325 236 L 170 127 T 328 212 L 295 37 T 134 109 L 192 256 T 297 146 T 337 205 T 92 260 L 18 366 L 322 218 L 52 239 L 2 60 T 20 362 T 116 52" style="fill: rgb(0,40,28)"/>
<path d="M 269 353 L 31 378 T 175 197 T 178 384 T 122 164 L 397 300 L 264 241" style="fill: rgb(0,0,36)"/>
<path d="M 235 237 L 46 326 T 20 294 L 168 302 L 23 141 T 212 288 L 355 301 T 87 131 L 155 196 T 70 221 L 23 222 L 344 102 T 287 311 L 369 316 L 38 86 T 35 20 L 298 86" style="fill: rgb(0,0,12)"/>
<path d="M 304 80 T 353 39 L 2 217 L 272 397 T 241 21 L 54 24 T 122 292 T 71 121 T 146 270 L 39 135" style="fill: rgb(0,0,80)"/>
<path d="M 240 52 L 77 251 T 227 85 T 245 110 L 291 98 L 79 306 L 188 158 T 212 356 T 142 199 T 262 193 T 247 51 T 7 314 L 329 48 T 226 160 T 157 386 T 241 371 T 396 202 T 356 376 L 238 72 T 41 153" style="fill: rgb(0,0,64)"/>
<path d="M 217 8 T 397 36 T 288 57 T 294 235 L 173 347 T 158 312" style="fill: rgb(0,0,64)"/>
<path d="M 15 370 T 323 173 L 342 316 L 351 22 L 48 288 T 291 53 L 239 165 T 21 153 L 39 148 L 389 381" style="fill: rgb(0,0,172)"/>
<path d="M 249 303 L 316 232 T 267 32 T 119 288 T 393 363 L 304 139 T 398 131 L 165 112 T 41 390" style="fill: rgb(0,0,56)"/>
<path d="M 156 72 T 282 360 T 105 340 T 116 332 L 137 184 L 258 45 T 284 18 T 2 282 L 128 331 L 49 399 T 290 80 L 236 188 T 33 190 L 379 118 L 166 70 T 132 24 T 170 198 T 382 48" style="fill: rgb(0,0,236)"/>
<path d="M 188 178 T 296 18 T 136 338 L 180 58 T 398 126 T 185 275 L 364 353 T 85 145 L 180 365 L 77 7 L 184 136 T 266 125 T 131 254 T 242 203 L 1 370 L 246 238 L 270 50 T 351 110 L 162 165 T 216 282 T 210 158" style="fill: rgb(0,0,56)"/>
<path d="M 175 210 T 366 372 T 260 194 L 3 62 L 323 354 L 102 126 L 329 119 T 368 183 L 284 61 T 271 373 T 30 101 T 230 369 L 388 5" style="fill: rgb(0,0,72)"/>
<path d="M 222 223 T 3 395 L 373 238 L 213 224 T 380 347 L 86 30 T 13 113 T 100 96 T 56 63 T 134 188 T 202 311 L 37 268" style="fill: rgb(0,0,148)"/>
<path d="M 369 54 L 47 125 L 321 21 T 361 283 T 385 325 T 362 336 L 215 249 L 216 314 L 383 179 L 324 105" style="fill: rgb(0,0,68)"/>
<path d="M 129 363 T 144 166 T 289 118 L 212 261 L 381 206 L 210 136 L 36 61 L 101 43" style="fill: rgb(0,0,204)"/>
<path d="M 289 365 L 49 334 L 291 67 T 21 134 T 148 173 L 216 162 L 309 359" style="fill: rgb(0,0,64)"/>
<path d="M 365 248 L 122 112 T 336 204 T 19 197 L 163 179 T 359 97 T 16 131 L 389 226 T 366 74 L 242 79 T 362 383 L 239 41" style="fill: rgb(0,0,192)"/>
<path d="M 396 248 T 148 24 L 136 63 L 199 56 T 42 24 L 65 234 L 306 100 T 393 213 L 187 367" style="fill: rgb(0,0,124)"/>
<path d="M 122 312 T 69 171 T 161 354 L 135 132 T 24 61 L 105 295 L 80 370 L 21 378 L 96 167 T 12 243 T 191 199 L 116 60 T 93 337 L 164 130" style="fill: rgb(0,0,60)"/>
<path d="M 321 379 T 117 87 T 178 110 L 24 89 T 291 28 L 149 1 L 79 61 T 339 126" style="fill: rgb(0,0,56)"/>
<path d="M 42 313 L 383 256 L 279 377 L 376 181 T 375 136 L 185 214 L 88 375 T 90 93 L 363 351 L 176 185 L 294 62 T 312 342 L 172 95 T 372 396 L 226 376 T 254 136" style="fill: rgb(0,0,80)"/>
<path d="M 81 393 L 82 390 L 224 20 T 120 164 T 165 212 T 254 347 T 345 89 T 25 297 L 51 118 L 295 193" style="fill: rgb(0,0,72)"/>
<path d="M 154 5 L 227 385 L 381 324 T 55 156 L 176 80 T 98 149 T 167 43 L 20 399 T 95 126 L 368 156 L 143 182 T 378 398 L 51 176 T 46 239 T 305 94 T 239 98" style="fill: rgb(0,0,8)"/>
<path d="M 380 58 T 114 389 L 24 380 L 294 273 L 103 35 L 48 35 L 288 282" style="fill: rgb(0,0,40)"/>
<path d="M 324 96 L 152 147 L 147 105 L 86 132 T 365 271 L 369 304 L 159 77 T 266 191 T 392 399 L 227 322 T 160 131 L 57 27 L 91 136 T 90 281" style="fill: rgb(0,0,100)"/>
<path d="M 322 58 T 128 373 L 206 366 L 93 349 T 56 350 L 205 371 L 395 142 L 139 340 L 127 145 T 180 371 T 224 97 L 270 235 T 376 293 L 269 52 L 35 233 T 232 116" style="fill: rgb(0,0,80)"/>
<path d="M 224 109 L 296 301 L 276 195 L 200 280 T 343 368 L 274 301 L 62 188 L 273 58 L 350 207" style="fill: rgb(0,0,60)"/>
<path d="M 243 27 L 144 203 L 133 169 T 227 16 T 33 400 L 290 165 T 172 388 L 2 3 L 265 289 T 16 117 L 386 316 L 48 358 T 69 399 T 257 202 T 194 376 L 12 180 T 314 45 L 162 194 L 45 222 T 299 319 L 88 334" style="fill: rgb(0,0,60)"/>
<path d="M 45 300 L 163 237 L 197 385 T 119 169 T 346 215 T 368 249 T 265 278 L 166 237 L 202 323 T 151 51 T 266 169 L 212 349 L 302 357 T 209 307 T 321 329 L 189 220 T 29 289 L 368 374 T 89 71 L 270 15 L 130 1" style="fill: rgb(0,0,96)"/>
<path d="M 313 345 L 294 71 T 191 316 L 106 52 L 107 141 L 152 162" style="fill: rgb(0,0,56)"/>
<path d="M 90 265 L 111 128 T 41 228 L 244 265 T 27 372 T 326 283 L 172 181 T 328 80 T 79 365 L 218 63 T 304 140 L 15 228 L 328 246 L 157 238 L 297 120 L 3 359 T 390 327 L 372 99 L 121 363 L 184 309" style="fill: rgb(0,0,104)"/>
<path d="M 154 342 L 148 364 L 324 281 L 221 17 T 55 228 L 38 135 T 259 384 L 68 297 L 160 240 L 231 395 L 76 280 L 162 306 L 228 166 L 74 368 L 3 241 T 249 139" style="fill: rgb(0,0,48)"/>
<path d="M 282 382 T 358 326 T 7 24 T 398 297 T 386 149 T 202 184 T 352 363 T 331 150 T 108 242 T 99 255 T 154 309 L 8 334 T 339 108 L 68 175 L 279 335 L 384 214 T 372 3 L 314 363 L 51 137" style="fill: rgb(0,0,72)"/>
<path d="M 176 395 T 269 205 T 78 71 L 77 91 T 378 366 L 39 349 L 309 184 L 370 224 T 62 337 L 357 155" style="fill: rgb(0,0,192)"/>
<path d="M 170 386 L 22 112 T 179 168 L 334 351 L 118 368 L 2 0 L 196 39 L 108 357 L 368 73 L 273 309 T 322 45 T 79 242 T 17 269 T 57 184 T 342 343" style="fill: rgb(0,0,44)"/>
<path d="M 73 141 L 191 297 L 36 197 T 254 206 T 200 166 L 368 358 T 273 21 L 248 232" style="fill: rgb(0,0,208)"/>
<path d="M 391 206 L 89 300 L 273 326 L 76 313 L 47 103 L 42 366 T 125 104 L 196 358 L 392 342 T 383 52 L 234 93 T 213 396 T 280 382" style="fill: rgb(0,0,68)"/>
<path d="M 324 41 L 192 351 T 256 222 T 205 181 T 251 106 L 329 237 L 280 22 T 13 290 T 353 84 T 235 238 L 280 192 L 153 81" style="fill: rgb(0,0,56)"/>
<path d="M 14 373 T 86 148 T 304 373 L 141 2 T 46 145 T 129 122 L 120 6 T 47 116 T 389 315 L 317 102 T 177 327 T 99 343 T 71 349 L 84 127 T 289 118 T 302 161 L 74 13 T 20 81 L 129 280 T 91 354 L 377 193" style="fill: rgb(0,0,48)"/>
<path d="M 144 190 L 58 46 T 156 143 T 277 12 L 124 300 L 28 139 T 138 250" style="fill: rgb(0,0,112)"/>
<path d="M 387 185 L 372 299 T 77 12 T 213 181 T 31 262 T 68 164 T 248 192 L 349 323 L 245 262 T 203 3 T 88 363 T 121 204 L 258 22 T 5 353 L 13 70 L 400 387 T 205 72 L 278 235 L 381 189 L 315 376 L 122 57" style="fill: rgb(0,0,8)"/>
<path d="M 169 216 T 153 189 T 24 17 L 368 58 T 336 62 L 206 242 T 190 149 T 1 174 T 131 202 L 255 215 T 306 216 L 250 132 L 289 396 L 312 271 T 21 254 T 120 180 T 180 7 T 390 388 L 41 197" style="fill: rgb(0,0,8)"/>
<path d="M 338 393 L 198 78 L 293 179 T 287 391 L 57 84 L 60 50 L 47 192 T 148 157 L 34 21" style="fill: rgb(0,0,20)"/>
<path d="M 199 166 T 153 251 T 213 44 T 358 343 L 137 46 L 341 297 L 147 133" style="fill: rgb(0,0,72)"/>
<path d="M 134 132 L 322 200 T 57 295 L 349 300 L 157 137 L 108 389 L 244 1 L 230 86 T 195 95 L 27 193 L 209 353 T 338 29 T 285 358 T 23 82 T 301 274 T 263 262" style="fill: rgb(0,0,112)"/>
<path d="M 115 308 T 123 163 T 83 396 T 304 112 T 142 333 T 223 246 L 266 174 T 174 62 T 48 176 L 71 380 T 329 222 L 52 352 L 65 222 L 144 141 T 70 252 T 78 324 L 187 93 T 175 392 T 304 123 L 256 58" style="fill: rgb(0,0,156)"/>
<path d="M 163 130 T 152 374 L 103 85 T 339 7 T 66 216 L 171 200 T 24 360 L 89 260 T 230 72 T 118 360 L 26 61" style="fill: rgb(0,0,64)"/>
<path d="M 313 314 T 213 248 T 106 375 T 275 388 L 25 147 L 96 39 L 268 240 L 157 242 T 16 123 T 144 311 L 141 256 T 19 87" style="fill: rgb(0,0,48)"/>
<path d="M 161 263 T 186 59 T 3 37 T 377 26 L 82 241 L 149 375 L 237 27 L 100 41 L 396 37 L 361 159 L 142 15 L 3 91 L 82 269" style="fill: rgb(0,0,68)"/>
<path d="M 112 4 L 174 145 T 276 300 L 293 220 T 45 209 T 379 175 L 54 237" style="fill: rgb(0,0,132)"/>
<path d="M 139 176 L 259 85 T 395 255 T 164 237 T 162 207 T 216 1 T 29 69 L 279 359 L 136 73 T 105 340 L 270 85 L 297 373 L 146 277 L 143 44 T 147 343 L 314 282 T 207 279 L 286 88 L 199 387 T 103 109 L 224 273" style="fill: rgb(0,0,84)"/>
<path d="M 312 399 L 192 60 T 36 381 L 296 45 T 326 53 L 286 251 L 286 295 L 168 42 T 116 80 T 145 151 L 207 72 L 164 11 T 211 334 L 348 120 L 144 88 T 249 81 L 350 61" style="fill: rgb(0,0,0)"/>
<path d="M 76 285 L 61 322 L 264 343 T 266 384 L 258 109 L 335 66 T 291 3 L 320 382 L 82 193 T 83 303 L 248 71 T 400 281 L 94 126 L 219 169 L 169 123 T 117 258 T 162 19 L 208 235" style="fill: rgb(0,0,44)"/>
<path d="M 289 169 L 340 349 L 27 373 T 56 89 T 52 149 T 236 345 L 23 179 L 192 81 L 366 0 L 15 378 L 304 152 L 231 210 L 134 29 T 106 154" style="fill: rgb(0,0,68)"/>
<path d="M 141 360 L 281 299 T 396 4 L 338 205 L 258 254 L 145 86 T 144 260 T 276 58 T 149 291 T 34 284 T 315 134 L 181 17" style="fill: rgb(0,0,88)"/>
<path d="M 76 309 T 327 277 T 217 41 T 379 214 T 101 234 T 261 75 L 281 105 L 48 181 T 73 70 T 46 212 T 257 60 L 380 43 T 247 32 T 308 326 L 384 229 L 355 226 T 321 358 L 141 281 T 363 367 T 63 236 L 127 306" style="fill: rgb(0,0,116)"/>
<path d="M 53 207 T 34 343 T 250 219 L 113 333 L 111 383 L 38 198 T 43 260 T 31 192" style="fill: rgb(0,0,124)"/>
<path d="M 46 298 L 62 18 L 108 44 T 366 390 T 257 343 T 57 206 T 291 269 L 105 195 T 276 126 L 76 46" style="fill: rgb(0,0,24)"/>
<path d="M 128 43 L 387 180 T 285 310 L 150 196 T 4 169 L 210 88 T 369 271 T 93 85 L 200 76 T 382 390 L 184 30 T 86 163 T 5 130 T 127 7 T 311 72 L 223 134 T 230 19 L 255 244 T 73 350" style="fill: rgb(0,0,28)"/>
<path d="M 262 297 L 362 324 T 194 377 T 379 202 T 204 333 L 255 241 L 375 279 T 70 162" style="fill: rgb(0,0,56)"/>
<path d="M 201 339 T 23 75 L 374 175 L 334 291 T 158 77 T 337 306 T 356 157 L 182 64 T 30 281 T 159 190 T 349 347 T 216 127 L 86 90 L 195 133 T 23 242 L 252 354 L 288 216 T 91 244" style="fill: rgb(0,0,72)"/>
<path d="M 336 83 T 389 228 T 51 32 T 306 90 T 36 21 L 346 33 L 198 222 T 178 33 T 253 394 T 133 221 L 213 4 L 149 14 T 214 248 L 29 8 T 120 267 L 358 341" style="fill: rgb(0,0,56)"/>
<path d="M 138 71 L 346 105 L 340 208 T 326 301 T 227 311 T 330 297 L 19 101 L 148 124 L 57 161 L 282 223" style="fill: rgb(0,0,56)"/>
<path d="M 187 191 T 262 54 L 169 238 L 366 68 L 91 218 L 136 339 L 333 238" style="fill: rgb(0,0,28)"/>
<path d="M 203 188 T 263 241 T 300 109 L 266 170 L 179 86 T 69 259" style="fill: rgb(0,0,52)"/>
<path d="M 392 194 T 382 95 L 93 358 L 370 65 L 343 348 T 282 114 T 56 54 L 248 78 T 238 101 T 308 96 T 188 278 L 64 59 T 234 253 L 122 368 L 170 101 L 350 101 T 363 36 L 347 348" style="fill: rgb(0,0,180)"/>
<path d="M 342 58 L 275 83 L 48 348 L 61 114 T 395 176 T 209 122 T 9 393 L 395 385" style="fill: rgb(0,0,8)"/>
<path d="M 214 337 L 259 118 L 11 53 L 107 160 T 106 125 L 335 213 L 120 216 L 221 241 L 205 303 L 155 214 T 393 371" style="fill: rgb(0,0,56)"/>
<path d="M 249 235 L 29 28 T 379 38 L 278 358 L 0 169 L 310 110" style="fill: rgb(0,0,68)"/>
<path d="M 142 271 T 344 217 T 383 365 L 146 29 T 372 23 T 97 203 T 81 194 T 397 195 L 157 281 T 294 246 T 163 351 T 283 280 L 218 333 T 263 226 L 343 24 L 98 374 L 46 143 L 144 162 L 37 299" style="fill: rgb(0,0,80)"/>
<path d="M 96 304 T 94 378 L 343 231 T 211 172 T 288 310 T 70 143 T 251 259 T 258 162 L 102 367 T 343 7 L 284 321 T 356 247 T 393 342 L 283 149" style="fill: rgb(0,0,40)"/>
<path d="M 108 139 L 329 46 T 175 63 T 371 211 T 155 294 L 82 51 L 1 28" style="fill: rgb(0,0,16)"/>
<path d="M 165 51 L 36 214 L 295 94 L 344 300 L 8 118 L 79 175 L 258 327 T 229 342 T 156 181 L 162 106 L 27 28 L 42 336 T 242 320 L 283 297 L 183 282 T 96 223 T 148 69 T 330 13 T 279 45 L 269 246 L 136 205" style="fill: rgb(0,0,160)"/>
<path d="M 105 306 L 218 395 L 226 317 T 12 279 L 211 246 L 183 265 L 372 46 L 72 42 L 394 185 T 184 47 T 214 179 T 167 86 L 288 190 T 393 87" style="fill: rgb(0,0,12)"/>
<path d="M 200 97 L 198 370 T 0 1 L 371 138 T 397 188 T 372 138 T 327 43 T 338 150 L 0 291 L 93 6 T 135 299 T 278 92 L 22 112 L 381 124 L 12 85 L 117 122" style="fill: rgb(0,0,32)"/>
<path d="M 298 365 L 244 207 L 227 33 L 111 185 T 319 354 L 201 183 L 330 216 T 372 224 T 75 308 T 145 124 T 113 308 L 195 119 L 154 269 L 86 351" style="fill: rgb(0,0,24)"/>
<path d="M 317 163 L 55 274 L 229 350 T 279 297 L 338 16 L 362 256 L 365 212 L 22 118 L 135 225 T 125 336 T 90 145 L 370 244 L 237 377 L 153 384 L 343 98 T 351 277 T 352 396 L 253 334" style="fill: rgb(0,0,72)"/>
<path d="M 295 137 T 374 276 L 269 18 T 77 370 L 291 153 L 45 128 T 194 386" style="fill: rgb(0,0,96)"/>
<path d="M 346 245 T 272 145 T 284 315 T 204 297 T 217 34 L 95 329 L 306 143 L 19 320 L 139 313 L 47 388 L 347 36 L 24 291 L 166 138 T 358 99 L 196 326 L 47 260 L 301 20 T 133 71" style="fill: rgb(0,0,112)"/>
<path d="M 314 20 T 391 1 T 210 231 T 193 125 L 327 245 T 282 335" style="fill: rgb(0,0,104)"/>
<path d="M 127 155 L 344 71 L 345 171 T 249 376 T 359 124 L 305 301 L 294 219 L 345 183 T 69 168 T 243 182 T 278 306 L 322 29 T 161 293 L 350 30 L 398 152 T 104 353 T 335 151 L 31 37 L 173 243 L 100 26" style="fill: rgb(0,0,180)"/>

</svg>
