<?xml version="1.0" standalone="no"?>
<!DOCTYPE svg PUBLIC "-//W3C//DTD SVG 1.1//EN" "http://www.w3.org/Graphics/SVG/1.1/DTD/svg11.dtd">

<svg width="400" height="400" version="1.1" xmlns="http://www.w3.org/2000/svg">

<path d="M 1 266 T 60 377 L 116 72 L 68 11 L 393 20 T 328 89 L 55 199 L 239 178 T 321 49 L 248 243" style="fill: rgb(0,208,184)"/>
<path d="M 350 353 T 390 80 T 104 18 L 344 120 T 361 55 L 61 10 T 382 298 L 111 378 T 380 44 L 101 355 T 138 371 L 59 137 T 165 280 L 97 49 T 188 147 L 262 99 L 286 1" style="fill: rgb(0,0,72)"/>
<path d="M 266 354 L 118 231 L 275 85 T 18 88 T 222 240 L 379 74 L 26 108 T 47 47" style="fill: rgb(0,0,80)"/>
<path d="M 41 144 T 95 133 T 383 14 L 239 240 T 95 144 L 221 361 T 390 117 L 320 172 T 7 45 L 272 368 T 15 294" style="fill: rgb(0,0,44)"/>
<path d="M 84 349 T 64 19 T 39 220 T 226 46 L 245 54 L 36 64 T 168 247 L 215 6 L 100 133 L 305 307 T 108 161 T 288 199 L 266 103 L 85 60 L 380 35 T 77 130 L 234 314 L 208 209 T 223 28" style="fill: rgb(0,0,68)"/>
<path d="M 166 360 L 383 395 T 72 59 T 43 129 T 167 155 T 252 78 L 168 219 T 29 297 T 109 376 L 50 326 T 241 120 L 128 165 L 276 326 T 107 305 L 230 158 L 121 235" style="fill: rgb(0,0,8)"/>
<path d="M 134 147 L 358 361 T 110 338 L 245 283 L 256 341 T 365 356 T 40 395 L 36 336 T 341 60 T 188 256 T 147 202 T 166 396 T 238 291 L 12 185 L 222 367 T 15 323" style="fill: rgb(0,0,56)"/>
<path d="M 74 387 T 166 23 L 101 28 L 246 353 T 291 141 T 28 288 T 346 36 T 387 302 T 90 362 T 311 64 L 228 72 L 376 159 T 247 146 L 79 382 T 334 301 T 6 188" style="fill: rgb(0,0,8)"/>
<path d="M 147 25 L 325 377 T 190 209 T 113 300 L 138 42 L 253 114 T 242 157 T 306 59 T 193 168 T 280 102 T 12 362 T 373 310 L 333 363 T 106 286" style="fill: rgb(0,0,204)"/>
<path d="M 115 168 L 54 99 L 275 79 L 78 191 L 12 359 L 310 185 T 323 224 L 239 153 L 158 229 L 233 132 T 94 81 T 213 239" style="fill: rgb(0,0,32)"/>
<path d="M 377 233 T 15 128 L 19 10 T 280 94 T 236 382 L 400 89 T 119 0 T 274 329 L 56 35 L 47 385 T 172 283 T 109 166 T 375 370 T 290 153 T 177 199" style="fill: rgb(0,0,40)"/>
<path d="M 352 397 T 365 180 L 176 240 T 222 308 L 180 323 L 378 178 T 353 293 L 321 189 T 125 23 T 395 336 T 387 155 T 280 316" style="fill: rgb(0,0,48)"/>
<path d="M 105 101 T 137 256 T 213 29 L 103 277 T 5 324 L 127 19 T 25 334 L 18 369 L 251 5 L 239 170 T 12 386 T 360 322 L 297 224 T 122 194" style="fill: rgb(0,0,96)"/>
<path d="M 4 381 T 205 8 T 152 265 T 197 169 L 288 369 T 123 79 L 65 275 T 290 260 T 188 51 T 21 88" style="fill: rgb(0,0,88)"/>
<path d="M 306 61 T 127 400 L 343 66 L 45 228 T 276 76 L 214 298 L 321 2" style="fill: rgb(0,0,96)"/>
<path d="M 16 308 L 202 43 T 378 145 L 15 2 L 55 400 L 81 8 T 10 174 T 359 373 T 203 121 L 24 229 L 214 3 L 357 271 T 142 380 T 115 303 L 376 272 T 392 293" style="fill: rgb(0,0,48)"/>
<path d="M 321 376 L 152 266 T 305 91 L 291 176 L 82 321 L 191 98 T 344 52 T 84 282 L 290 225 T 197 337 L 317 347 L 373 170 L 241 100 T 244 166 L 4 4 L 201 224 T 103 72 L 180 273" style="fill: rgb(0,0,24)"/>
<path d="M 286 58 T 140 231 L 195 217 L 194 120 L 68 356 T 13 357 L 181 247 L 361 141 T 238 255 T 265 310 T 76 342 T 348 151 T 69 201 L 392 209 L 263 144 T 238 316 T 227 398 T 331 337 T 338 327" style="fill: rgb(0,0,72)"/>
<path d="M 364 340 T 331 30 L 169 227 L 374 383 L 257 107 L 176 155 T 351 294 L 217 76 L 129 144 T 231 89 L 27 101 T 88 39 L 100 90 L 345 69 L 51 331 T 355 142 L 44 148 L 148 88 L 349 11 T 328 269" style="fill: rgb(0,0,8)"/>
<path d="M 108 180 L 127 118 L 176 107 L 166 285 T 68 122 L 45 149 T 2 237 L 135 325 T 71 321 L 289 285 L 170 139 L 301 104 T 248 248 T 306 362 T 334 247 L 351 64 T 340 29 T 395 276 T 382 341" style="fill: rgb(0,0,12)"/>
<path d="M 94 101 T 178 69 T 5 291 L 305 297 T 308 356 T 300 267 T 93 260 T 141 184 T 110 293 L 76 371 L 400 180 T 22 340 T 0 255 L 261 108 T 65 155 L 84 14" style="fill: rgb(0,0,128)"/>
<path d="M 65 224 L 155 320 T 257 370 T 258 258 T 316 277 L 260 362 L 344 111 T 161 243 T 319 340 L 314 329" style="fill: rgb(0,0,84)"/>
<path d="M 296 160 T 267 345 T 144 20 T 366 69 L 214 384 L 186 254" style="fill: rgb(0,0,44)"/>
<path d="M 349 39 L 341 202 L 385 318 T 382 154 L 320 270 L 336 366 L 344 50 T 326 192 T 152 113 L 250 282 L 5 263 L 363 190 T 174 126 L 352 119 L 223 372" style="fill: rgb(0,0,72)"/>
<path d="M 193 42 L 77 284 L 17 163 T 293 244 L 53 382 T 233 221 T 113 276 T 170 28 T 188 385 T 267 351 L 180 28 L 368 137 L 120 116 T 29 223" style="fill: rgb(0,0,40)"/>
<path d="M 81 384 L 137 391 T 94 237 T 247 96 L 259 25 T 26 284 T 149 67 L 71 34 L 197 273 L 90 186 L 194 196 L 196 226 L 229 372 L 338 253 T 230 81" style="fill: rgb(0,0,8)"/>
<path d="M 46 33 L 118 238 T 365 213 T 222 251 L 169 291 L 144 237 L 367 131 L 7 315 T 365 356 L 51 378 L 348 239 T 231 365 T 252 40 T 84 101 T 390 341 L 45 339 T 152 122 L 128 394 L 339 17" style="fill: rgb(0,0,68)"/>
<path d="M 174 389 T 30 176 T 235 360 L 231 202 L 139 125 L 53 227 T 334 151 L 44 280 L 347 362 L 254 101 T 192 191 T 38 92 L 328 63 T 317 303 L 30 296 T 233 109 T 87 311 T 211 138 T 108 48 T 291 373" style="fill: rgb(0,0,156)"/>
<path d="M 53 264 T 261 204 T 324 241 L 5 323 T 9 347 L 399 127 T 202 393 T 333 375 T 337 5 L 58 264 L 8 170 T 53 157 T 92 324 L 187 2 L 355 399 T 218 200 T 37 56 T 226 376 L 254 90 L 327 180 T 121 295" style="fill: rgb(0,0,76)"/>
<path d="M 142 202 L 12 341 T 116 71 L 231 310 T 374 223 L 241 277 L 325 68 T 191 232 L 214 80 T 97 112 T 290 281 T 122 125 L 145 160 T 158 127 L 272 305 T 198 305 L 161 19 T 51 345" style="fill: rgb(0,0,0)"/>
<path d="M 282 200 T 80 347 L 177 326 T 110 68 L 150 121 T 224 352 L 355 88 L 394 311 T 311 162 L 1 173 T 7 387 L 315 38" style="fill: rgb(0,0,8)"/>
<path d="M 176 357 T 121 204 L 18 137 L 77 56 L 133 387 L 92 107 T 64 52 L 238 17 L 297 184" style="fill: rgb(0,0,68)"/>
<path d="M 239 384 L 357 1 T 179 270 T 357 344 L 286 25 L 173 67 L 103 201" style="fill: rgb(0,0,36)"/>
<path d="M 400 184 T 26 75 T 173 35 L 96 274 T 308 300 L 182 279 T 207 171 T 392 249 T 294 320" style="fill: rgb(0,0,36)"/>
<path d="M 330 40 L 296 8 L 52 90 L 159 149 T 316 46 T 136 240 T 225 352 L 108 71 L 369 290 L 329 147 T 308 91 L 332 240 L 281 146 T 98 80 T 58 311" style="fill: rgb(0,0,48)"/>
<path d="M 197 102 L 174 87 L 79 166 L 184 319 L 198 78 T 306 16 T 367 291 L 79 170 L 217 208 T 100 18" style="fill: rgb(0,0,48)"/>
<path d="M 28 170 L 391 1 T 219 90 L 10 324 L 205 323 T 132 251 T 380 91 T 252 11 L 190 328 L 101 326 T 173 246 L 319 284 T 80 59 T 314 25 L 211 334 T 194 259 L 260 194 L 226 67" style="fill: rgb(0,0,84)"/>
<path d="M 308 389 L 93 237 T 306 360 T 23 211 L 76 321 L 138 318 T 365 10 T 362 64 T 41 143 L 265 350" style="fill: rgb(0,0,104)"/>
<path d="M 254 205 L 161 110 L 290 152 T 133 179 T 328 277 L 380 245 L 32 87 T 238 145 T 156 205 L 305 31" style="fill: rgb(0,0,84)"/>
<path d="M 120 91 L 40 21 L 87 169 T 372 200 T 383 319 L 138 306" style="fill: rgb(0,0,192)"/>
<path d="M 261 42 L 216 17 L 346 383 T 151 276 T 308 398 L 93 93 L 252 87 T 19 75 L 352 226" style="fill: rgb(0,0,84)"/>
<path d="M 105 194 T 275 142 T 3 267 L 334 74 T 194 389 T 210 313 L 358 151 L 253 136 L 174 167 L 96 67 L 365 284 L 5 233 L 382 215 L 334 284 L 271 380" style="fill: rgb(0,0,128)"/>
<path d="M 15 247 L 122 386 T 117 369 T 227 342 T 264 197 L 161 13 L 210 133 L 102 57 L 14 334 L 385 243 L 212 280 T 347 148 L 3 64 T 35 244 L 35 15 T 238 173 L 67 174 L 3 286" style="fill: rgb(0,0,52)"/>
<path d="M 317 82 T 101 257 T 48 91 T 310 171 L 84 227 L 314 74 L 229 361 L 122 324 L 197 183" style="fill: rgb(0,0,28)"/>
<path d="M 197 209 L 388 253 T 93 104 T 255 55 L 240 226 T 157 341 L 5 64 L 36 204 L 374 292 T 210 198 T 335 210 L 41 161 T 312 304 T 314 178 L 377 340 L 36 115 T 139 297 L 356 45 T 1 216 T 34 53 L 396 269" style="fill: rgb(0,0,64)"/>
<path d="M 85 72 T 279 266 L 45 187 T 258 10 T 173 248 L 0 374 T 258 265 T 270 17 L 279 44 T 307 328 L 223 118 L 61 98 T 1 362 T 244 208 L 103 176 T 70 398" style="fill: rgb(0,0,68)"/>
<path d="M 400 302 L 198 264 L 104 367 L 372 25 T 369 238 T 378 344 L 20 375 T 26 368 T 233 4 L 177 185 T 331 179 T 227 389 T 398 62 L 361 279 L 74 235 L 312 115 T 19 29 T 332 382 L 26 28" style="fill: rgb(0,0,100)"/>
<path d="M 146 136 L 244 55 T 76 128 T 374 94 T 157 312 T 348 349" style="fill: rgb(0,0,108)"/>
<path d="M 244 203 L 234 167 T 278 154 T 224 215 L 308 1 L 321 272 L 397 140 T 152 231 L 349 17 T 255 152 L 293 232 T 329 90 L 107 45 T 291 24 L 293 289 T 120 108 T 73 200 L 292 267 T 204 124" style="fill: rgb(0,0,12)"/>
<path d="M 308 183 T 335 203 T 187 258 L 358 210 T 223 355 T 357 359 T 374 7 L 283 377 L 296 230 T 25 44 T 288 225 L 278 9 L 8 150 T 86 38 T 26 332 L 176 306 T 37 80 L 127 77 T 161 39 T 370 359 T 37 77" style="fill: rgb(0,0,72)"/>
<path d="M 65 241 T 329 186 T 336 130 T 219 102 T 51 388 T 277 368 T 145 47 L 9 278" style="fill: rgb(0,0,8)"/>
<path d="M 6 39 T 324 397 T 367 67 L 35 144 T 46 388 T 114 328 L 113 24" style="fill: rgb(0,0,12)"/>
<path d="M 222 383 L 127 201 L 186 191 L 396 274 T 62 170 L 236 332 L 45 216 L 9 342 L 377 6 T 38 135 T 256 58 T 115 112 T 328 371 T 307 394 L 174 369" style="fill: rgb(0,0,12)"/>
<path d="M 152 218 T 193 393 T 46 251 T 322 6 L 155 82 T 116 171 L 24 29 T 400 180 L 255 91 T 49 336 T 107 52 T 191 100" style="fill: rgb(0,0,32)"/>
<path d="M 16 399 L 391 303 T 373 308 T 267 225 L 188 293 L 393 134 L 60 251 T 265 107 T 309 211 T 197 151 L 218 78 T 193 60 T 372 35 L 108 83 L 92 313 T 241 369 L 199 253" style="fill: rgb(0,0,40)"/>
<path d="M 285 387 L 225 66 T 288 85 T 351 339 T 119 23 T 165 173 L 235 5 L 203 366 T 177 373 T 369 255 L 106 260 L 120 235" style="fill: rgb(0,0,40)"/>
<path d="M 55 155 T 208 158 T 396 91 L 212 23 T 71 219 T 241 154 L 395 15 L 348 153 L 356 206 T 104 73 L 100 111 T 202 64 L 283 84 L 356 325" style="fill: rgb(0,0,92)"/>
<path d="M 13 97 T 16 88 L 267 112 T 146 55 L 70 12 L 229 84 T 149 50 T 99 356 L 130 91 T 87 132 L 158 20 T 115 383 L 198 237 T 157 290 L 61 286" style="fill: rgb(0,0,124)"/>
<path d="M 193 253 T 94 146 T 303 58 L 20 289 L 61 210 T 269 333 L 383 371 L 248 22 L 78 196 T 93 43 T 354 107 T 370 243 L 385 32 L 386 351 T 397 340 L 159 237" style="fill: rgb(0,0,56)"/>
<path d="M 270 391 T 233 253 L 109 208 T 294 364 T 47 105 L 362 147 L 357 55 L 158 159 T 270 109 L 108 282" style="fill: rgb(0,0,12)"/>
<path d="M 223 129 T 226 238 L 81 99 L 354 221 L 335 384 T 236 102 T 273 275 T 327 234 L 297 108 L 145 252 T 235 19 L 303 3 T 15 300 L 96 80 T 353 62 T 134 256 L 22 187 L 53 298 L 139 168 T 130 189" style="fill: rgb(0,0,0)"/>
<path d="M 158 288 L 302 247 T 233 353 T 141 76 T 59 259 L 147 216 T 23 129 L 318 366 L 231 291 L 172 60 L 190 89 L 391 205 L 58 238 T 299 274 T 131 4 L 10 218" style="fill: rgb(0,0,84)"/>
<path d="M 2 50 L 108 189 L 217 24 T 127 186 L 182 342 T 29 93 T 376 353 L 10 211 L 124 96 L 53 312 T 231 82 T 223 208 T 319 152 T 195 285 L 154 3 T 38 132 T 12 307 T 227 233 T 273 169" style="fill: rgb(0,0,64)"/>
<path d="M 265 346 L 257 277 L 316 256 T 15 354 L 229 325 L 88 58 T 70 160 L 98 109 L 134 155 T 282 78 T 91 21 L 91 257 L 390 110 L 360 309 T 293 329 L 109 239 T 371 117 T 98 23" style="fill: rgb(0,0,28)"/>
<path d="M 1 183 T 309 11 L 69 356 T 17 87 L 20 47 T 332 106 T 349 290 L 366 77 L 372 381 T 114 35 T 371 117 L 125 283 L 308 68 L 230 3 L 328 235 L 196 52 L 156 205" style="fill: rgb(0,0,64)"/>
<path d="M 106 13 L 231 90 L 109 365 T 6 26 T 310 375 T 163 232 L 195 194 T 384 45 L 262 180 L 277 150 T 70 42 L 211 393 L 375 0 L 246 14 T 339 325 L 236 384 T 181 146 T 322 103" style="fill: rgb(0,0,12)"/>
<path d="M 256 246 T 15 376 T 129 278 L 102 305 T 202 132 L 76 34 L 263 86 L 363 53 L 249 44 T 239 358 T 215 335 T 197 181 L 109 358" style="fill: rgb(0,0,28)"/>
<path d="M 213 63 L 154 150 L 55 279 T 365 362 T 359 237 T 307 69 T 11 95 T 109 73 T 104 37 L 248 384 L 321 4 L 17 351 T 247 169 T 390 359 T 27 73 L 75 65 L 19 224 T 233 25" style="fill: rgb(0,0,128)"/>
<path d="M 220 92 T 48 396 T 127 312 L 329 215 L 296 387 T 348 263 L 8 112 L 350 292 L 82 25 L 82 20" style="fill: rgb(0,0,24)"/>
<path d="M 99 398 L 42 100 L 131 127 T 23 59 T 361 125 T 379 245 L 49 57 L 169 188 T 50 292 L 396 17 L 9 35 T 27 244 L 235 159 T 102 383 T 263 282 L 237 318 L 229 92 L 12 394" style="fill: rgb(0,0,8)"/>
<path d="M 225 197 T 395 113 T 160 303 T 159 63 T 331 55 T 230 226 L 147 149 T 279 215 L 69 349 L 197 230 L 352 168 T 304 267 T 329 179 T 77 260 T 159 142 T 91 255 T 77 394" style="fill: rgb(0,0,156)"/>
<path d="M 341 77 L 273 51 L 32 260 L 217 388 L 279 281 L 240 68 T 242 394 T 224 9 L 269 288" style="fill: rgb(0,0,72)"/>
<path d="M 142 208 T 57 335 L 276 354 L 118 2 T 301 163 L 279 369 L 180 128 T 208 359 L 397 210" style="fill: rgb(0,0,72)"/>
<path d="M 210 81 T 104 151 T 5 265 T 88 153 L 20 236 L 328 262 T 251 307 T 156 211 T 145 354 L 115 125 T 348 327 T 321 324 L 208 321 T 150 352 L 365 399 T 323 166" style="fill: rgb(0,0,68)"/>
<path d="M 79 383 L 129 202 L 322 61 T 237 285 T 29 132 L 127 84 T 14 35 L 288 270 T 301 53 L 91 46 T 136 134 T 317 214" style="fill: rgb(0,0,8)"/>
<path d="M 228 114 L 158 261 L 363 79 T 140 126 L 239 184 T 187 126 T 39 323 L 384 150 L 123 106 L 346 141 T 251 48 T 265 127 T 207 297 L 22 295 T 387 179 T 354 102" style="fill: rgb(0,0,92)"/>
<path d="M 324 275 T 52 224 T 195 379 L 161 12 T 15 358 T 237 1 T 317 243 T 35 198 L 147 291 L 131 204 T 365 289 L 131 113 L 65 18 T 193 372" style="fill: rgb(0,0,184)"/>
<path d="M 181 25 T 395 385 T 216 349 L 210 64 L 78 383 L 130 303 L 149 250 L 225 298 L 2 23 L 121 76 L 372 226 T 1 252 T 315 135 L 355 39" style="fill: rgb(0,0,164)"/>
<path d="M 365 323 T 164 227 T 207 78 T 189 50 T 180 8 L 139 196 L 145 353 L 81 103 L 172 145 L 356 56 L 146 397 T 90 162 T 237 398 L 194 388 L 210 12 T 108 174 T 127 282 L 153 140 T 92 184 L 229 234 T 175 323" style="fill: rgb(0,0,8)"/>
<path d="M 83 395 L 175 152 T 162 121 L 260 353 L 34 39 L 70 265 L 275 271 T 128 69 L 161 328 L 317 110 T 187 201 L 111 264 T 24 159 T 18 21 T 335 314 L 36 140" style="fill: rgb(0,0,68)"/>

</svg>
