<?xml version="1.0" standalone="no"?>
<!DOCTYPE svg PUBLIC "-//W3C//DTD SVG 1.1//EN" "http://www.w3.org/Graphics/SVG/1.1/DTD/svg11.dtd">

<svg width="400" height="400" version="1.1" xmlns="http://www.w3.org/2000/svg">

<path d="M 287 107 L 290 298 L 394 130 T 292 103 L 41 140 L 43 197 T 53 168 T 31 189 L 40 345 L 172 210" style="fill: rgb(0,56,92)"/>
<path d="M 320 153 L 72 372 L 38 223 L 180 27 T 57 326 L 287 189 T 188 374 T 351 243 L 15 155 T 350 385 L 298 72 T 200 190 T 375 252 L 108 183 T 38 112 T 57 182 L 247 98 T 8 197 L 315 251 T 6 191" style="fill: rgb(0,0,52)"/>
<path d="M 191 372 T 296 173 T 59 333 L 103 261 L 90 7 T 358 254 T 11 84 T 223 81 L 195 219 T 272 76 T 44 6 L 394 232 L 136 218 L 3 178 T 146 48 T 102 121 T 258 85 L 167 55" style="fill: rgb(0,0,72)"/>
<path d="M 272 300 T 325 150 L 209 180 T 139 121 L 374 197 T 24 237 T 323 149 L 223 117 L 222 320 T 184 333 L 214 6 L 41 226 L 363 106 T 212 193 L 163 128 L 50 116 T 48 369 L 362 365" style="fill: rgb(0,0,44)"/>
<path d="M 342 379 T 53 266 T 26 263 T 249 389 L 136 290 L 68 140" style="fill: rgb(0,0,152)"/>
<path d="M 142 68 T 147 115 L 8 7 L 367 70 T 226 102 L 59 28 L 71 210 T 151 268 T 381 25 L 384 163 L 170 217 T 158 258 L 373 340" style="fill: rgb(0,0,148)"/>
<path d="M 44 356 T 65 245 L 211 67 T 284 400 T 313 357 T 348 16" style="fill: rgb(0,0,96)"/>
<path d="M 47 28 L 257 59 T 375 118 L 6 206 T 397 259 L 274 346 L 8 25 L 341 65 L 70 345 T 249 282 L 217 350 T 145 24 L 70 202 T 361 76 T 76 364 L 4 276 T 203 0" style="fill: rgb(0,0,204)"/>
<path d="M 184 199 T 108 355 L 86 324 T 101 79 T 1 68 T 235 131 T 173 96 L 218 62 L 281 207 L 183 313" style="fill: rgb(0,0,12)"/>
<path d="M 212 266 T 129 342 L 155 230 L 64 270 L 188 87 T 168 151 L 242 237 T 182 27 L 312 209 L 48 338 T 1 36 L 15 270 T 288 69 T 235 6 T 262 26 T 48 247 T 219 94" style="fill: rgb(0,0,44)"/>
<path d="M 356 215 T 61 313 L 363 198 L 56 51 L 185 175 T 360 56 L 310 356 L 183 125 T 151 204 L 261 88 T 242 279" style="fill: rgb(0,0,40)"/>
<path d="M 11 86 T 331 98 L 206 47 T 276 249 L 390 382 L 354 310 L 152 352 L 125 96 L 344 273 L 227 210 L 271 256 T 360 3 L 176 388 L 373 341 T 282 326 T 335 52 T 264 163" style="fill: rgb(0,0,148)"/>
<path d="M 378 288 T 81 206 L 392 278 T 209 293 T 107 60 L 247 126 L 241 163" style="fill: rgb(0,0,92)"/>
<path d="M 250 358 T 68 162 T 79 338 T 195 38 T 216 216 T 234 273 T 0 185 T 281 174 L 185 27 T 230 214 T 268 96 T 16 96 T 324 335 T 175 315 L 275 214 T 314 30" style="fill: rgb(0,0,180)"/>
<path d="M 366 353 T 324 120 T 377 18 L 349 54 T 85 372 L 96 26 T 154 264 T 271 41 T 125 317 T 117 77 T 235 197 L 102 127 L 241 9 T 294 379 T 372 88 L 261 380 L 107 377 T 336 281 L 229 66" style="fill: rgb(0,0,12)"/>
<path d="M 90 29 L 34 121 T 112 210 T 202 235 T 213 208 L 335 237 T 232 347 L 316 79 L 297 164 L 164 288 T 174 230 L 254 146 L 146 54 T 25 364 T 192 3 L 364 367 L 9 23" style="fill: rgb(0,0,80)"/>
<path d="M 338 51 L 307 312 L 190 25 T 197 381 L 157 46 L 313 339 T 396 25 T 68 222 T 303 353 L 8 288" style="fill: rgb(0,0,40)"/>
<path d="M 155 192 L 67 251 T 248 23 T 264 128 T 283 231 L 110 226 L 351 272" style="fill: rgb(0,0,192)"/>
<path d="M 288 137 L 83 190 T 379 262 L 127 235 T 299 137 L 353 21 L 366 296 L 224 115" style="fill: rgb(0,0,84)"/>
<path d="M 78 81 L 299 19 T 36 88 L 284 52 T 195 280 L 166 6 L 141 319 T 114 382 T 217 261 L 326 148 L 77 301" style="fill: rgb(0,0,40)"/>
<path d="M 346 331 T 185 320 T 395 310 L 181 29 L 67 277 L 218 283 T 345 14" style="fill: rgb(0,0,76)"/>
<path d="M 383 397 L 339 8 T 291 288 L 181 134 T 223 142 L 287 127 L 69 29 L 372 264 T 268 254" style="fill: rgb(0,0,28)"/>
<path d="M 303 208 L 317 55 L 36 108 T 112 258 L 377 65 T 138 152 L 240 167 T 113 135 L 48 123 L 367 311 L 280 35" style="fill: rgb(0,0,8)"/>
<path d="M 61 124 L 388 57 L 239 360 T 153 105 L 317 253 T 218 372 T 343 340" style="fill: rgb(0,0,172)"/>
<path d="M 49 239 L 350 326 L 151 28 T 149 205 L 342 383 L 159 374 L 214 303 T 140 107 L 143 44 T 352 182 T 174 89 T 119 283 T 374 259 L 350 41 T 333 294 L 157 89 T 269 10 T 257 331 T 308 363 L 92 13 T 167 242" style="fill: rgb(0,0,92)"/>
<path d="M 19 208 T 189 343 T 26 328 T 183 247 T 39 209 T 177 354 T 258 11 T 272 0 T 132 111 T 181 118 L 296 311 T 89 283 T 290 29 L 244 92 L 124 337" style="fill: rgb(0,0,60)"/>
<path d="M 347 46 L 216 218 T 373 274 T 293 191 T 139 286 T 389 106 T 219 207 T 35 295 L 361 221 L 18 12 T 91 64 L 383 130 T 208 205 T 311 255 L 252 133 T 100 102" style="fill: rgb(0,0,212)"/>
<path d="M 44 24 L 63 97 T 147 395 T 216 199 T 105 144 L 44 305 T 198 175 T 315 372 L 350 285 T 88 135 T 289 191 T 186 184 T 168 101 T 295 162 T 319 221" style="fill: rgb(0,0,72)"/>
<path d="M 132 130 T 142 3 L 9 36 L 175 296 L 48 285 T 314 80 L 215 235 L 73 221 L 66 75 T 157 232 L 80 165 T 192 50 L 229 180 L 71 184 T 327 13 L 13 396 L 345 217 T 356 286 L 228 94 T 113 277" style="fill: rgb(0,0,80)"/>
<path d="M 378 245 L 393 128 T 51 299 T 105 164 L 209 23 L 345 139 L 389 141 T 174 324 T 261 324 L 251 41 T 241 115" style="fill: rgb(0,0,72)"/>
<path d="M 226 227 L 5 37 T 220 269 T 224 195 L 79 45 L 280 279 T 214 72 L 117 186 L 254 146 T 116 368 L 390 85 L 267 241 T 295 338 T 144 79 T 326 130 T 289 285 L 313 206 T 215 395" style="fill: rgb(0,0,24)"/>
<path d="M 270 363 L 23 269 L 221 398 T 242 369 L 59 352 T 260 6 T 334 94 L 186 85 T 66 394 T 155 195 T 350 398 L 340 200 T 226 376 L 92 258 L 231 78 L 112 282 T 131 145 T 380 51 T 18 248" style="fill: rgb(0,0,220)"/>
<path d="M 344 106 L 143 2 L 93 237 L 129 52 L 381 32 L 109 11 L 253 382 T 221 161 L 187 343 L 104 91 L 348 147 L 159 83 L 321 117 T 257 291" style="fill: rgb(0,0,164)"/>
<path d="M 84 101 T 342 338 T 207 184 L 138 187 T 113 139 T 244 145 L 83 248 L 159 350 L 304 366 T 309 147 T 152 377 L 349 144" style="fill: rgb(0,0,32)"/>
<path d="M 66 253 L 320 300 T 350 145 T 269 245 L 95 166 T 152 252 T 244 175 L 340 252 T 245 4" style="fill: rgb(0,0,56)"/>
<path d="M 363 313 L 148 386 T 221 162 T 256 136 T 369 116 L 273 139 T 387 194 T 189 279 T 223 186 L 11 128 L 204 390 T 110 397 L 273 272 L 310 174" style="fill: rgb(0,0,100)"/>
<path d="M 229 109 T 218 99 T 301 178 T 44 356 T 183 320 T 266 77" style="fill: rgb(0,0,60)"/>
<path d="M 347 134 L 370 81 T 96 17 T 218 393 T 187 207 T 354 134 L 10 34 T 322 88 T 305 310 L 233 222 L 25 275 T 104 381 L 213 125 T 214 128 L 1 53 L 347 304 T 224 118 L 105 315 T 240 187 T 213 114" style="fill: rgb(0,0,160)"/>
<path d="M 358 41 L 25 258 T 122 81 L 236 390 L 163 266 L 343 281 T 108 242 T 208 25 T 375 212 T 245 236" style="fill: rgb(0,0,60)"/>
<path d="M 69 287 T 236 191 L 114 2 L 187 267 L 44 105 L 297 165 T 120 217 L 319 262 T 78 362 T 128 246 T 204 352 L 115 342 L 327 266 T 104 191 L 266 144" style="fill: rgb(0,0,56)"/>
<path d="M 26 57 T 224 84 L 184 35 L 48 173 L 75 322 T 398 126 T 95 265 L 372 332 T 129 166 L 207 365 L 253 277 T 96 55 T 245 128 L 76 225 L 303 381" style="fill: rgb(0,0,36)"/>
<path d="M 175 237 L 116 224 L 37 84 T 333 157 T 355 53 T 297 60 L 256 277 T 75 14 L 302 29 T 54 273 L 246 242 L 286 105 T 65 158 L 137 1 L 367 129 L 327 92 T 179 316 L 126 208 T 21 14" style="fill: rgb(0,0,16)"/>
<path d="M 105 68 L 91 386 L 167 245 T 126 251 L 53 281 T 351 90 T 4 117 T 200 324 T 386 200 T 357 49 L 219 116 L 308 227 T 25 138 L 27 137 T 262 365" style="fill: rgb(0,0,56)"/>
<path d="M 283 323 L 299 210 T 136 301 L 392 303 T 27 90 T 292 126 L 279 5 L 378 310 L 83 225 L 151 388 T 19 376 T 294 219 T 387 384" style="fill: rgb(0,0,40)"/>
<path d="M 316 268 T 225 5 T 195 164 T 292 53 T 60 21 T 387 26 L 101 100 L 108 61 T 396 253 T 328 259 L 264 383 T 394 45 T 79 150 T 95 260 L 37 186 L 347 345" style="fill: rgb(0,0,24)"/>
<path d="M 393 69 T 334 23 L 211 38 T 75 262 T 75 363 L 288 372 T 223 183 L 295 64 L 335 9 T 231 130 T 247 80 T 56 47 T 235 353" style="fill: rgb(0,0,56)"/>
<path d="M 292 389 T 345 149 L 197 283 L 212 381 L 161 140 L 165 147 L 126 389" style="fill: rgb(0,0,56)"/>
<path d="M 349 163 T 179 182 L 326 239 L 293 244 L 273 24 T 275 369 L 326 42" style="fill: rgb(0,0,60)"/>
<path d="M 300 138 T 126 358 T 392 93 L 29 245 L 280 336 T 150 256 L 211 226 L 276 144" style="fill: rgb(0,0,56)"/>
<path d="M 252 20 T 165 53 T 358 111 L 258 351 L 382 180 L 73 346 L 55 123 T 196 214 T 53 88 L 144 166 T 152 265 L 329 283 L 10 163" style="fill: rgb(0,0,24)"/>
<path d="M 181 296 T 145 340 L 336 99 L 133 273 L 282 121 T 328 248 L 209 287 T 400 8 L 186 38 L 76 281 T 170 315 T 208 311 L 248 188 L 328 170 T 208 366 L 293 75 L 153 358" style="fill: rgb(0,0,24)"/>
<path d="M 350 326 L 50 150 T 299 395 L 177 291 L 92 129 T 333 207 T 329 147 L 21 192 L 391 309 L 350 51 T 68 377 L 13 285 L 1 396 L 25 100 T 345 176 L 378 350 L 182 292 L 245 322 T 223 144 T 254 398 L 127 85" style="fill: rgb(0,0,140)"/>
<path d="M 139 167 L 287 192 T 332 190 L 245 369 T 393 25 T 52 296 L 379 80 T 89 106 L 265 392 L 132 338 T 188 186 L 101 307 L 398 28 L 346 178 L 85 9 T 199 280 L 123 396 L 118 87" style="fill: rgb(0,0,40)"/>
<path d="M 341 275 L 308 65 L 87 100 T 178 72 L 364 183 L 73 75 T 310 183 T 378 51 T 179 115 T 328 253 L 218 303 L 359 378 T 281 24" style="fill: rgb(0,0,68)"/>
<path d="M 133 398 T 232 129 L 180 70 T 348 255 L 267 20 L 262 363 L 48 385 T 25 32 L 19 43 L 336 212 T 139 377 T 188 335 T 88 53 L 192 180 T 307 205" style="fill: rgb(0,0,72)"/>
<path d="M 221 81 L 295 159 L 132 303 T 69 262 T 52 85 T 310 337 L 6 365 L 59 163 T 255 270 T 89 321 L 293 267 T 284 26 L 55 215 L 325 149 T 148 171 T 164 282" style="fill: rgb(0,0,8)"/>
<path d="M 356 11 L 228 67 T 98 190 L 179 34 T 174 252 T 49 142 T 367 240 T 5 386 L 335 379 T 148 180 L 290 223 T 53 46 L 312 392 T 298 61 L 331 112 T 50 337 T 53 218" style="fill: rgb(0,0,56)"/>
<path d="M 112 395 L 113 317 T 261 55 T 109 237 L 318 316 T 120 139 T 142 33 T 156 99 T 349 290 L 156 106 L 282 31 L 109 383 L 21 46 T 329 399 L 18 362 T 344 121 L 85 149 T 110 48 T 25 273 T 289 394" style="fill: rgb(0,0,68)"/>
<path d="M 164 127 T 2 257 L 31 110 T 358 392 T 67 213 T 91 1 L 212 138 T 299 211 T 337 311 T 19 262 T 18 302 T 67 209 L 295 186 T 232 205 T 231 37 T 128 336 T 245 269 T 259 178 L 337 333 L 285 316" style="fill: rgb(0,0,28)"/>
<path d="M 168 209 L 200 82 T 65 309 L 390 143 L 330 339 T 246 136 T 108 210 L 121 171 L 286 273 L 379 292 L 170 353 T 368 263 T 59 82 T 319 376 L 217 341 L 342 388 L 68 59 L 338 336 T 151 286 T 98 198" style="fill: rgb(0,0,80)"/>
<path d="M 184 153 T 61 374 T 41 322 L 59 336 T 238 149 T 324 41 L 191 375 L 130 339 T 214 146 T 150 83 L 240 284 L 9 334 L 362 312 T 232 23 T 163 389 L 212 344 T 151 233 T 85 106 T 77 259 L 68 229" style="fill: rgb(0,0,44)"/>
<path d="M 334 201 L 398 267 T 163 58 T 351 370 L 323 294 L 246 369 T 100 374 L 307 204 L 306 144 T 281 126 T 400 26 L 395 298 T 109 266 L 38 312 T 391 319 T 363 212 L 391 292 T 103 201 L 195 373 L 300 376 L 250 167" style="fill: rgb(0,0,96)"/>
<path d="M 196 255 L 82 331 L 290 224 T 265 221 L 138 68 L 69 67 T 345 287 T 112 258 L 363 226 T 99 393 T 122 214 T 102 9 L 236 308 L 214 120" style="fill: rgb(0,0,184)"/>
<path d="M 181 285 L 374 9 T 345 338 T 217 397 T 25 181 T 248 14 T 230 91 L 327 116 L 119 123 L 85 102 L 228 315 L 371 46 L 79 73 L 219 360 T 77 378 T 143 119 L 255 300 T 337 222 L 228 33 L 369 304" style="fill: rgb(0,0,176)"/>
<path d="M 62 360 L 296 313 L 67 25 T 305 339 L 342 292 T 73 113" style="fill: rgb(0,0,72)"/>
<path d="M 304 373 L 40 366 T 108 226 T 51 249 T 397 5 L 102 368 T 305 367 T 366 288 T 79 94 L 251 209 L 165 380 T 298 270" style="fill: rgb(0,0,48)"/>
<path d="M 381 102 T 250 107 L 174 144 L 49 17 L 361 290 L 178 228 L 13 362 L 129 72 L 340 346 T 355 105 T 44 311 T 85 221 L 23 380 L 213 175 T 154 160 L 122 40 T 373 270 T 80 156 L 373 197 T 195 275 L 143 144" style="fill: rgb(0,0,28)"/>
<path d="M 6 4 L 280 339 L 37 91 L 63 40 L 37 399 L 300 376 L 347 227 T 202 148 L 85 98 T 369 176 T 36 103 T 380 384" style="fill: rgb(0,0,112)"/>
<path d="M 180 7 L 175 392 T 365 25 L 398 293 L 201 11 L 274 263 T 258 368 L 30 30 L 206 287 T 118 135 T 314 356 L 377 22 L 68 158 L 198 58 L 55 94" style="fill: rgb(0,0,144)"/>
<path d="M 189 318 T 251 365 L 199 86 T 243 219 L 147 304 T 115 267 L 2 152 L 84 338 L 391 322 L 149 355 L 372 145 L 152 5 L 385 234 T 170 109 T 39 43 L 94 299 L 283 396 L 131 304" style="fill: rgb(0,0,72)"/>
<path d="M 373 83 T 383 250 T 258 389 T 253 37 T 75 272 T 245 250 T 129 49 L 295 267 L 115 373 T 325 39 L 325 355 L 259 139 T 1 346 L 5 345" style="fill: rgb(0,0,12)"/>
<path d="M 274 47 T 212 274 L 224 50 L 390 200 T 311 193 L 15 5 T 177 185 L 380 383 L 304 47 L 215 389 L 227 2 L 209 106 L 235 330 L 272 144 T 147 80 L 44 376 L 380 359 T 192 347 L 47 53 T 230 393" style="fill: rgb(0,0,76)"/>
<path d="M 264 217 L 342 375 T 225 184 L 59 396 L 146 205 L 284 139 L 182 95 L 106 329 L 387 55 T 76 259 L 268 171 T 78 62 L 144 156 T 363 383 T 123 0" style="fill: rgb(0,0,44)"/>
<path d="M 158 69 L 343 348 T 313 232 T 386 56 L 207 310 L 46 76 T 292 118 T 342 197 L 45 87 T 239 44 L 184 244 L 44 134 L 197 172 L 330 160 T 255 180 L 220 375 L 275 264" style="fill: rgb(0,0,80)"/>
<path d="M 134 78 L 275 12 T 84 112 L 88 43 L 131 291 L 195 140 L 52 237 L 323 366 L 155 341 T 288 286 L 48 138 L 375 67 T 67 209 T 139 280 L 284 114" style="fill: rgb(0,0,40)"/>
<path d="M 323 365 T 320 180 T 39 293 L 338 206 L 385 70 L 137 266 T 364 80 T 150 158 T 62 400 L 85 53 T 274 174 T 140 399" style="fill: rgb(0,0,68)"/>
<path d="M 67 193 L 16 159 T 63 369 L 178 37 L 37 57 T 352 94 L 138 346 T 233 23 L 182 31 L 196 62 T 106 157 L 118 364 T 220 369 L 248 122 T 14 27 L 358 343 T 52 387 T 262 289 L 393 370" style="fill: rgb(0,0,96)"/>
<path d="M 82 277 L 97 118 L 169 297 L 212 362 L 350 67 L 363 338 T 85 314 L 262 195 T 35 194 L 306 373 T 70 350 L 380 326" style="fill: rgb(0,0,60)"/>
<path d="M 49 371 T 35 113 L 155 188 L 5 212 T 104 338 L 326 68 L 250 399 T 146 342 L 318 226 T 318 299 L 256 329 T 172 322 L 79 304 T 267 260 T 114 146 T 282 210 T 22 72 L 48 63 T 266 280 T 192 265 L 377 255" style="fill: rgb(0,0,68)"/>
<path d="M 232 318 L 225 146 T 154 91 T 345 259 T 274 53 T 369 161" style="fill: rgb(0,0,64)"/>

</svg>
